<?xml version="1.0" encoding="UTF-8"?>
<svg xmlns="http://www.w3.org/2000/svg" version="1.1" width="1536" height="1024" style="background-color:transparent;">
<path d="M0 0 C506.88 0 1013.76 0 1536 0 C1536 337.92 1536 675.84 1536 1024 C1029.12 1024 522.24 1024 0 1024 C0 686.08 0 348.16 0 0 Z " fill="none" transform="translate(0,0)"/>
<path d="M0 0 C26.56039377 21.4469457 46.02635352 52.45141499 50.625 86.5625 C50.78675394 90.12215342 50.80265525 93.67974013 50.81787109 97.24267578 C50.83013733 98.83904625 50.83013733 98.83904625 50.84265137 100.46766663 C50.8674125 103.98104299 50.8839983 107.49437918 50.8984375 111.0078125 C50.90376118 112.21194668 50.90908485 113.41608086 50.91456985 114.65670395 C50.94126201 121.03122062 50.9606489 127.40571799 50.97509766 133.78027344 C50.98842899 139.04119278 51.01627358 144.30172356 51.05712891 149.5625 C51.10657166 155.93018991 51.13123296 162.29752781 51.13832474 168.66540146 C51.14501611 171.08376791 51.16018255 173.50212716 51.18421555 175.92038345 C51.41289493 200.32399024 51.41289493 200.32399024 45.625 209.5625 C45.2566806 210.1607962 44.88836121 210.75909241 44.50888062 211.3755188 C39.64755932 218.07224893 31.39921214 222.31147966 23.625 224.5625 C20.77101897 224.93945404 17.97308854 224.94457474 15.09765625 224.90307617 C13.8815844 224.90373329 13.8815844 224.90373329 12.64094543 224.90440369 C9.9895428 224.90233136 7.33879071 224.87907486 4.6875 224.85546875 C2.8380569 224.84986724 0.98860932 224.84559977 -0.86083984 224.84260559 C-5.70734135 224.83120048 -10.55356929 224.80177095 -15.39996338 224.76849365 C-20.3538442 224.73769896 -25.30776961 224.72408023 -30.26171875 224.70898438 C-39.96626543 224.67689682 -49.67060989 224.62575333 -59.375 224.5625 C-59.49164009 215.17326404 -59.5800889 205.78428333 -59.63406086 196.39447689 C-59.65998491 192.03282233 -59.69506146 187.67166896 -59.75219727 183.31030273 C-59.80713984 179.08919524 -59.83654922 174.86856505 -59.84938622 170.64712715 C-59.85851597 169.04899153 -59.87633881 167.45087746 -59.90365028 165.85294914 C-60.16442077 149.94069069 -57.10800108 136.94236368 -46.375 124.5625 C-45.26318359 123.26699219 -45.26318359 123.26699219 -44.12890625 121.9453125 C-35.38919936 112.5024108 -24.89991288 106.87565135 -12.60546875 103.25390625 C-10.42506893 102.76791524 -10.42506893 102.76791524 -9.375 101.5625 C-9.33407063 99.22952567 -9.33258277 96.89544775 -9.375 94.5625 C-9.95765625 94.41554688 -10.5403125 94.26859375 -11.140625 94.1171875 C-27.72017797 89.58127206 -42.13048911 80.18572129 -51.3203125 65.44140625 C-56.23820457 56.23366461 -58.89294824 46.6508394 -61.375 36.5625 C-63.72867713 35.8746764 -63.72867713 35.8746764 -66.375 35.5625 C-69.65532491 37.25315814 -69.65532491 37.25315814 -70.04296875 40.4765625 C-70.21441406 41.70117188 -70.38585937 42.92578125 -70.5625 44.1875 C-72.88325337 57.74063366 -79.4642086 69.0889494 -89.375 78.5625 C-89.890625 79.1090625 -90.40625 79.655625 -90.9375 80.21875 C-99.69892332 88.79764367 -114.34285293 94.83450055 -126.41186523 94.78955078 C-127.07613022 94.78984283 -127.7403952 94.79013489 -128.42478943 94.79043579 C-130.59452932 94.78905563 -132.76391474 94.77355749 -134.93359375 94.7578125 C-136.44816399 94.75407768 -137.96273665 94.75123292 -139.47731018 94.74923706 C-143.44423206 94.74163751 -147.41100515 94.72202107 -151.37786865 94.6998291 C-155.43353259 94.67929101 -159.48922081 94.67021838 -163.54492188 94.66015625 C-171.48834917 94.63877132 -179.43165602 94.60468035 -187.375 94.5625 C-187.46337761 90.93765827 -187.51584706 87.31309983 -187.5625 83.6875 C-187.58763672 82.67429687 -187.61277344 81.66109375 -187.63867188 80.6171875 C-187.78564288 65.33220349 -181.75469718 55.63497097 -171.375 44.9375 C-170.049233 43.54710969 -168.7237183 42.15647875 -167.3984375 40.765625 C-166.39635254 39.72051758 -166.39635254 39.72051758 -165.37402344 38.65429688 C-162.22278128 35.35680753 -159.11048586 32.02338957 -156 28.6875 C-155.12553223 27.75200317 -155.12553223 27.75200317 -154.23339844 26.79760742 C-150.98754605 23.31865056 -147.78692929 19.80578364 -144.625 16.25 C-133.526733 3.92990545 -122.1655169 -5.54982275 -107.5625 -13.375 C-106.88179443 -13.74052979 -106.20108887 -14.10605957 -105.49975586 -14.48266602 C-71.1696569 -32.24333503 -29.39438378 -22.90288985 0 0 Z " fill="#455EF8" transform="translate(259.375,387.4375)"/>
<path d="M0 0 C7.39739218 -0.07688183 14.7946791 -0.12894407 22.19238281 -0.16479492 C24.7021876 -0.17976106 27.21196679 -0.20014122 29.72167969 -0.22631836 C54.30549559 -0.47607426 76.18730061 0.42043241 95.18359375 18.0234375 C108.74704534 32.24787601 115.440125 51.7410958 115.3125 71.1875 C115.30686035 72.10096191 115.3012207 73.01442383 115.29541016 73.95556641 C114.93760182 94.1451672 108.46135545 111.8557831 94.6875 126.75 C80.71202372 139.93679252 63.06505374 144.35266827 44.43359375 144.1953125 C43.15895767 144.1924826 41.88432159 144.18965271 40.57106018 144.18673706 C37.2123946 144.1774899 33.8540104 144.15957871 30.49542236 144.1373291 C27.05621752 144.11672468 23.61698339 144.10770441 20.17773438 144.09765625 C13.45174639 144.07568358 6.72588941 144.04227195 0 144 C-0.13001563 139.70859047 0.5422103 137.55730041 2.6875 133.8125 C12.97697332 113.7956861 13.8569765 91.45302286 7.07275391 70.07861328 C6.72519043 69.01239746 6.37762695 67.94618164 6.01953125 66.84765625 C-1.00303559 44.48830505 -0.85102688 23.26903888 0 0 Z " fill="#0D106A" transform="translate(814,431)"/>
<path d="M0 0 C8.64152433 -0.09326128 17.28283343 -0.16404625 25.92473888 -0.20724869 C29.93885949 -0.22799852 33.95263224 -0.25608078 37.96655273 -0.30175781 C41.85047568 -0.34567179 45.73406705 -0.36923149 49.61821938 -0.37950897 C51.08959475 -0.38681967 52.56095489 -0.40109206 54.03218651 -0.42292023 C72.34974528 -0.68353233 86.20486287 4.80208499 99.58203125 17.37109375 C112.39800517 31.30510094 116.82772793 47.10910132 116.48828125 65.55859375 C116.47892303 67.08414026 116.47182122 68.60970208 116.46684265 70.13526917 C116.44800854 74.09587178 116.3991219 78.0555159 116.34332275 82.01574707 C116.29161137 86.07872562 116.26921944 90.14186337 116.24414062 94.20507812 C116.19097143 102.13715221 116.10595767 110.06845596 116 118 C104.42096298 118.09286351 92.84201521 118.16384802 81.26268101 118.20724869 C75.88535427 118.22808358 70.50828316 118.25632637 65.13110352 118.30175781 C59.93746887 118.34536166 54.74407943 118.36916791 49.5502758 118.37950897 C47.57321249 118.38687427 45.59616191 118.40125687 43.61920357 118.42292023 C40.84032788 118.45214757 38.06245301 118.45594796 35.28344727 118.45410156 C34.47423828 118.46848267 33.6650293 118.48286377 32.83129883 118.49768066 C23.78581498 118.43305612 15.41843405 114.34016046 9 108 C2.41060051 99.41302664 -0.3216367 91.68268186 -0.22705078 80.94360352 C-0.22734283 80.06475998 -0.22763489 79.18591644 -0.22793579 78.28044128 C-0.2265505 75.3964933 -0.21102719 72.5128087 -0.1953125 69.62890625 C-0.19157952 67.6210901 -0.18873389 65.61327212 -0.18673706 63.60545349 C-0.17912305 58.33650632 -0.15949378 53.06767047 -0.1373291 47.79876709 C-0.11682251 42.41599025 -0.10772506 37.03319532 -0.09765625 31.65039062 C-0.07624575 21.10021167 -0.04213683 10.55011511 0 0 Z " fill="#455EF8" transform="translate(72,494)"/>
<path d="M0 0 C8.25 0 16.5 0 25 0 C25 19.14 25 38.28 25 58 C43.81 58 62.62 58 82 58 C82 38.86 82 19.72 82 0 C90.25 0 98.5 0 107 0 C107 47.52 107 95.04 107 144 C98.75 144 90.5 144 82 144 C82 124.2 82 104.4 82 84 C63.19 84 44.38 84 25 84 C25 103.8 25 123.6 25 144 C16.75 144 8.5 144 0 144 C0 96.48 0 48.96 0 0 Z " fill="#0C0F69" transform="translate(398,431)"/>
<path d="M0 0 C10.11977753 7.91399391 16.18037824 19.02256128 19.125 31.375 C20.24872773 43.05980122 19.86870821 54.53000918 15.125 65.375 C14.774375 66.17808594 14.42375 66.98117187 14.0625 67.80859375 C8.21531496 79.52326656 -1.38763934 87.90396644 -13.6875 92.1875 C-26.54375647 96.16739178 -38.57178575 94.88368065 -50.671875 89.01953125 C-64.32910607 81.30112642 -71.2214661 69.31828165 -75.40991211 54.47998047 C-78.63605702 39.87849941 -75.40797451 24.4453896 -67.62109375 11.99609375 C-67.04488281 11.13113281 -66.46867188 10.26617187 -65.875 9.375 C-65.47410156 8.76785156 -65.07320312 8.16070312 -64.66015625 7.53515625 C-49.50704238 -12.79482214 -19.50067112 -13.03621206 0 0 Z " fill="#0E116A" transform="translate(1015.875,483.625)"/>
<path d="M0 0 C10.73363889 7.74551964 17.90359848 19.18002817 20.1875 32.25 C21.76769525 48.72943044 19.52234392 64.41801039 9.21875 77.80859375 C0.51588433 88.12026382 -10.40366937 94.08619859 -23.921875 95.59765625 C-36.25082601 95.96496956 -47.74445746 92.06026489 -57.29296875 84.2109375 C-67.60196832 74.43724611 -73.53077219 62.51083568 -74.05078125 48.2734375 C-74.39908556 30.58801277 -71.39412682 17.52236819 -59.25 4 C-42.74807472 -11.72383843 -18.60901007 -11.31073957 0 0 Z " fill="#0E116A" transform="translate(788.8125,482.75)"/>
<path d="M0 0 C10.33704485 8.0275356 16.44302285 19.12581912 18.53515625 31.96875 C20.17475002 47.5925139 17.63227751 62.42081031 8.54296875 75.50390625 C0.10634495 85.86092885 -10.10739116 92.46132588 -23.46484375 93.96875 C-37.27557312 95.21215972 -48.75579577 90.44005649 -59.71484375 82.296875 C-68.43671835 74.59709508 -74.59550091 61.23188376 -75.68017578 49.67431641 C-76.52795408 32.77023487 -73.68627843 17.51236467 -62.05078125 4.46875 C-44.07659524 -12.53146534 -20.28543147 -13.7765808 0 0 Z " fill="#0E106A" transform="translate(1284.46484375,484.03125)"/>
<path d="M0 0 C12.14942121 8.11628002 18.27990938 19.25110942 21.09765625 33.33984375 C21.09765625 39.60984375 21.09765625 45.87984375 21.09765625 52.33984375 C-0.68234375 52.33984375 -22.46234375 52.33984375 -44.90234375 52.33984375 C-40.12740851 65.53802624 -40.12740851 65.53802624 -29.90234375 73.33984375 C-18.93004428 74.15298176 -18.93004428 74.15298176 -8.90234375 70.33984375 C-5.77345138 67.35733231 -2.84591037 64.226977 -0.90234375 60.33984375 C6.59378141 61.86447938 13.81124759 64.01990529 21.09765625 66.33984375 C17.80529821 77.13497923 11.68027322 85.34561101 2.09765625 91.33984375 C-10.57288087 97.74701321 -23.26200419 99.22632436 -37.015625 95.37890625 C-48.58815398 91.2134222 -56.43840814 83.45425799 -62.32421875 72.8359375 C-69.09308772 57.84054708 -70.47132292 39.60745633 -65.08984375 23.98046875 C-60.02185219 11.73282247 -52.40809785 3.19206663 -40.4921875 -2.6171875 C-27.03929486 -8.03486825 -12.55516426 -7.18162155 0 0 Z " fill="#0E106A" transform="translate(589.90234375,480.66015625)"/>
<path d="M0 0 C40.39224684 0 40.39224684 0 52.8125 11 C61.13656124 20.16054778 65.41306301 32.84122109 65.3125 45.0625 C65.30686035 45.7949292 65.3012207 46.5273584 65.29541016 47.28198242 C65.00127296 60.79045167 62.13584959 74.52995338 52.875 84.875 C38.05326858 98.25709304 19.00056401 96 0 96 C0 64.32 0 32.64 0 0 Z " fill="none" transform="translate(838,455)"/>
<path d="M0 0 C6.71954193 5.33428252 12.21364213 12.05380124 15.5390625 20.015625 C15.5390625 21.005625 15.5390625 21.995625 15.5390625 23.015625 C12.27162594 24.3573928 8.99959342 25.68756859 5.7265625 27.015625 C4.79779297 27.3971875 3.86902344 27.77875 2.91210938 28.171875 C2.01943359 28.5328125 1.12675781 28.89375 0.20703125 29.265625 C-0.61514893 29.60078125 -1.4373291 29.9359375 -2.28442383 30.28125 C-4.4609375 31.015625 -4.4609375 31.015625 -7.4609375 31.015625 C-8.63671875 29.44140625 -8.63671875 29.44140625 -9.7734375 27.328125 C-12.34167728 22.96521164 -15.26656066 19.0667661 -20.2890625 17.4140625 C-26.9801112 16.18656795 -33.43450879 15.83073877 -39.3984375 19.453125 C-44.69513336 23.49053383 -47.38899643 28.79980179 -49.4609375 35.015625 C-50.21114024 46.23981212 -49.42970167 55.38256532 -42.1796875 64.28515625 C-37.73949009 68.75562774 -33.19672096 70.23962905 -26.9609375 70.515625 C-21.75341272 70.28482058 -17.5499815 69.36120645 -13.4609375 66.015625 C-10.51057556 62.34272545 -8.54293038 58.21712415 -6.4609375 54.015625 C-1.51072341 54.81209529 3.12076403 56.46883207 7.8515625 58.078125 C8.68751953 58.35978516 9.52347656 58.64144531 10.38476562 58.93164062 C12.43711874 59.62357682 14.48821733 60.31923209 16.5390625 61.015625 C12.13211244 73.43285486 5.56146994 83.9495077 -6.3984375 90.328125 C-7.73916309 90.92195031 -9.09439165 91.48390509 -10.4609375 92.015625 C-11.58242187 92.46228516 -11.58242187 92.46228516 -12.7265625 92.91796875 C-24.22048839 96.94084281 -35.34225212 95.57894823 -46.4609375 91.015625 C-59.65430689 84.61268909 -67.8801918 74.41648302 -72.69921875 60.69140625 C-76.79850858 46.29133686 -75.52781816 29.71862065 -68.8359375 16.390625 C-63.28236345 6.9112486 -56.37237374 -0.17931071 -46.4609375 -4.984375 C-45.78933594 -5.32339844 -45.11773438 -5.66242188 -44.42578125 -6.01171875 C-30.50828612 -11.83078704 -12.00330683 -8.23281564 0 0 Z " fill="#0E116A" transform="translate(1120.4609375,482.984375)"/>
<path d="M0 0 C7.59 0 15.18 0 23 0 C23 11.22 23 22.44 23 34 C28.94 34 34.88 34 41 34 C41 41.59 41 49.18 41 57 C35.06 57 29.12 57 23 57 C23.09364748 63.31739827 23.1997676 69.63441842 23.31738281 75.95141602 C23.35563385 78.09979534 23.39049347 80.24823787 23.421875 82.39672852 C23.46760937 85.48737146 23.52559056 88.57758081 23.5859375 91.66796875 C23.59748871 92.62648239 23.60903992 93.58499603 23.62094116 94.57255554 C23.69694205 101.04141141 23.69694205 101.04141141 26 107 C29.14611253 109.09740836 29.91188078 109.25328219 33.5 109.1875 C34.66015625 109.17783203 34.66015625 109.17783203 35.84375 109.16796875 C38.18348849 109.0730565 38.18348849 109.0730565 41 108 C41 115.92 41 123.84 41 132 C36.64862454 133.45045849 32.43489671 133.30591066 27.875 133.375 C26.96234375 133.41238281 26.0496875 133.44976563 25.109375 133.48828125 C17.44951007 133.58648465 12.04429877 131.46868694 6.22460938 126.47729492 C-1.28265236 118.6641054 -1.4336706 108.47535473 -1.29296875 98.2109375 C-1.28872391 97.02650055 -1.28447906 95.8420636 -1.28010559 94.62173462 C-1.26343533 90.87258287 -1.22580413 87.12398679 -1.1875 83.375 C-1.17243814 80.81901823 -1.15875237 78.26302796 -1.14648438 75.70703125 C-1.11356989 69.47114304 -1.06186806 63.23566544 -1 57 C-6.28 57 -11.56 57 -17 57 C-17 49.41 -17 41.82 -17 34 C-14.00520833 33.86979167 -11.01041667 33.73958333 -8.015625 33.609375 C-4.31088638 32.86074906 -3.30135714 31.96478955 -1 29 C-0.35928071 25.8169119 -0.35928071 25.8169119 -0.390625 22.265625 C-0.35839844 20.97011719 -0.32617188 19.67460937 -0.29296875 18.33984375 C-0.27822531 16.97656698 -0.26390778 15.61328555 -0.25 14.25 C-0.22183186 12.87105624 -0.19190322 11.49214725 -0.16015625 10.11328125 C-0.0894407 6.7425065 -0.04245906 3.37124907 0 0 Z " fill="#0D106B" transform="translate(1161,443)"/>
<path d="M0 0 C8.25 0 16.5 0 25 0 C25 47.52 25 95.04 25 144 C16.75 144 8.5 144 0 144 C0 96.48 0 48.96 0 0 Z " fill="#0E116A" transform="translate(675,431)"/>
<path d="M0 0 C7.92 0 15.84 0 24 0 C24 47.52 24 95.04 24 144 C16.08 144 8.16 144 0 144 C0 96.48 0 48.96 0 0 Z " fill="#0C0F69" transform="translate(628,431)"/>
<path d="M0 0 C0 8.58 0 17.16 0 26 C-2.145 26.0825 -4.29 26.165 -6.5 26.25 C-15.51357712 26.92238378 -20.77005543 28.99169741 -26.67578125 35.828125 C-31.15329211 43.17177112 -31.46369314 49.97214643 -31.51171875 58.375 C-31.52966995 59.5400708 -31.54762115 60.7051416 -31.56611633 61.90551758 C-31.62002508 65.60364227 -31.65405354 69.30163931 -31.6875 73 C-31.72069012 75.51694477 -31.75518134 78.03387274 -31.79101562 80.55078125 C-31.87817433 86.70053726 -31.93841228 92.84972277 -32 99 C-39.92 99 -47.84 99 -56 99 C-56 66.99 -56 34.98 -56 2 C-48.41 2 -40.82 2 -33 2 C-32.67 6.29 -32.34 10.58 -32 15 C-31.01 13.783125 -30.02 12.56625 -29 11.3125 C-20.64437737 1.79450244 -12.64751069 0 0 0 Z " fill="#0C0F6A" transform="translate(1371,476)"/>
<path d="M0 0 C7.10080505 3.11510413 11.13122939 8.60083951 13.9765625 15.64453125 C17.19947268 25.58409459 15.77787375 33.83916587 11.6015625 43.33203125 C8.56951377 48.8053251 3.40138785 52.26753836 -2.3984375 54.33203125 C-9.37777031 55.4844111 -15.42602759 54.8688619 -21.4296875 51.0078125 C-27.8384169 45.55276307 -31.74855619 37.36664339 -32.64453125 29.046875 C-32.9152615 19.76241996 -30.47085645 12.43833188 -24.3984375 5.33203125 C-17.46676959 -1.47386042 -9.27313187 -2.58258233 0 0 Z " fill="none" transform="translate(770.3984375,499.66796875)"/>
<path d="M0 0 C7.48848927 4.27913673 11.34075427 9.58476282 14.0625 17.75 C14.86024224 29.38919006 14.2592483 37.75535234 6.75 47.125 C2.01127026 52.15426497 -2.51849026 53.87541059 -9.375 54.1875 C-16.44094725 53.95519488 -21.32775991 51.75135925 -26.1875 46.625 C-32.74227171 38.15394257 -34.11031506 29.28115383 -32.9375 18.75 C-30.9531059 10.11964698 -26.28619263 4.88510399 -19.25 -0.1875 C-13.13691295 -2.14830151 -6.04663385 -2.41334947 0 0 Z " fill="none" transform="translate(996.9375,500.25)"/>
<path d="M0 0 C7.03785963 3.19778476 11.07851671 8.56533127 13.94921875 15.6015625 C17.14276318 25.42372437 16.18727839 34.13976948 11.57421875 43.3515625 C8.17502295 48.77217355 3.7675929 52.55004747 -2.42578125 54.3515625 C-8.5850525 55.22375128 -14.1379605 54.91468589 -19.578125 51.7421875 C-25.42795127 47.33935842 -30.13169614 41.6620082 -31.42578125 34.3515625 C-32.5285981 23.86354915 -31.96101771 15.15216455 -25.42578125 6.3515625 C-18.09373366 -0.72250564 -10.04608 -2.68542557 0 0 Z " fill="none" transform="translate(1264.42578125,499.6484375)"/>
<path d="M0 0 C1.20269531 -0.00257813 2.40539062 -0.00515625 3.64453125 -0.0078125 C4.90652344 -0.00007813 6.16851562 0.00765625 7.46875 0.015625 C8.73074219 0.00789063 9.99273437 0.00015625 11.29296875 -0.0078125 C12.49566406 -0.00523437 13.69835937 -0.00265625 14.9375 0 C16.04544922 0.00225586 17.15339844 0.00451172 18.29492188 0.00683594 C20.96875 0.265625 20.96875 0.265625 22.96875 2.265625 C23.22753906 5.12304688 23.22753906 5.12304688 23.234375 8.734375 C23.23824219 10.67376953 23.23824219 10.67376953 23.2421875 12.65234375 C23.23590332 13.66433838 23.23590332 13.66433838 23.22949219 14.69677734 C23.2187907 16.75778657 23.22938943 18.81792419 23.2421875 20.87890625 C23.23960937 22.17183594 23.23703125 23.46476562 23.234375 24.796875 C23.23211914 25.98861328 23.22986328 27.18035156 23.22753906 28.40820312 C22.96875 31.265625 22.96875 31.265625 20.96875 33.265625 C12.22798943 32.50186922 5.91179852 23.29205605 0.03125 17.453125 C-0.64405762 16.78265137 -1.31936523 16.11217773 -2.01513672 15.42138672 C-2.64822754 14.78604004 -3.28131836 14.15069336 -3.93359375 13.49609375 C-4.79198853 12.63600708 -4.79198853 12.63600708 -5.66772461 11.75854492 C-7.7347122 9.49540632 -8.02394242 8.3825463 -8.21875 5.265625 C-7.86500643 -0.39427209 -4.88767794 0.00995164 0 0 Z " fill="#4762F7" transform="translate(287.03125,364.734375)"/>
<path d="M0 0 C6.50423689 3.85617047 9.88117319 9.09205825 12.45703125 16.046875 C12.45703125 17.036875 12.45703125 18.026875 12.45703125 19.046875 C-1.73296875 19.046875 -15.92296875 19.046875 -30.54296875 19.046875 C-29.38140974 9.75440294 -27.50685093 6.35011015 -20.54296875 0.546875 C-14.52487437 -2.4420672 -6.19607581 -2.3223387 0 0 Z " fill="#F7F7F9" transform="translate(576.54296875,496.953125)"/>
<path d="M0 0 C0.66 0 1.32 0 2 0 C0.50902342 3.7952131 -1.75700849 5.61042731 -5 8 C-5.66 7.67 -6.32 7.34 -7 7 C-4.66666667 4.66666667 -2.33333333 2.33333333 0 0 Z " fill="#1A1B68" transform="translate(960,483)"/>
<path d="M0 0 C0.99 0.33 1.98 0.66 3 1 C1.02 2.98 -0.96 4.96 -3 7 C-3.66 6.67 -4.32 6.34 -5 6 C-3.35 4.02 -1.7 2.04 0 0 Z " fill="#4C66F4" transform="translate(116,402)"/>
<path d="M0 0 C0.33 1.32 0.66 2.64 1 4 C-0.65 5.32 -2.3 6.64 -4 8 C-4 4.09161134 -2.49432124 2.88405893 0 0 Z " fill="#22236E" transform="translate(1006,543)"/>
<path d="M0 0 C0.66 0.33 1.32 0.66 2 1 C1.34 3.31 0.68 5.62 0 8 C-0.66 8 -1.32 8 -2 8 C-1.125 2.25 -1.125 2.25 0 0 Z " fill="#1A1C6A" transform="translate(1213,503)"/>
</svg>